<svg xmlns="http://www.w3.org/2000/svg" xmlns:svgjs="http://svgjs.com/svgjs" xmlns:xlink="http://www.w3.org/1999/xlink" width="288" height="288"><svg xmlns="http://www.w3.org/2000/svg" width="288" height="288" viewBox="0 0 512 512"><line x1="192" x2="320" y1="448" y2="448" fill="none" stroke="#fff" stroke-linecap="round" stroke-linejoin="round" stroke-width="32" class="colorStroke000 svgStroke"/><path fill="none" stroke="#fff" stroke-linecap="round" stroke-linejoin="round" stroke-width="32" d="M384,208v32c0,70.4-57.6,128-128,128h0c-70.4,0-128-57.6-128-128V208" class="colorStroke000 svgStroke"/><line x1="256" x2="256" y1="368" y2="448" fill="none" stroke="#fff" stroke-linecap="round" stroke-linejoin="round" stroke-width="32" class="colorStroke000 svgStroke"/><path fill="#fff" d="M256,320a78.83,78.83,0,0,1-56.55-24.1A80.89,80.89,0,0,1,176,239V128a79.69,79.69,0,0,1,80-80c44.86,0,80,35.14,80,80V239C336,283.66,300.11,320,256,320Z" class="color000 svgShape"/></svg></svg>